<svg width="80" height="69" viewBox="0 0 80 69" fill="none" xmlns="http://www.w3.org/2000/svg">
<path d="M45.7143 0C36.6212 0 27.9004 3.61223 21.4706 10.0421C15.0408 16.4719 11.4286 25.1926 11.4286 34.2857H0L14.819 49.1048L15.0857 49.6381L30.4762 34.2857H19.0476C19.0476 19.5429 30.9714 7.61905 45.7143 7.61905C60.4571 7.61905 72.381 19.5429 72.381 34.2857C72.381 49.0286 60.4571 60.9524 45.7143 60.9524C38.3619 60.9524 31.6952 57.9429 26.8952 53.1048L21.4857 58.5143C24.6606 61.7067 28.4361 64.239 32.5945 65.9651C36.7529 67.6913 41.2119 68.577 45.7143 68.5714C54.8074 68.5714 63.5281 64.9592 69.9579 58.5294C76.3878 52.0996 80 43.3788 80 34.2857C80 25.1926 76.3878 16.4719 69.9579 10.0421C63.5281 3.61223 54.8074 1.35498e-07 45.7143 0ZM41.9048 19.0476V38.0952L58.0952 47.6952L61.0286 42.781L47.619 34.819V19.0476H41.9048Z" fill="#4F7BFF"/>
</svg>
