<svg width="80" height="72" viewBox="0 0 80 72" fill="none" xmlns="http://www.w3.org/2000/svg">
<path d="M33.2 18.8C32.8294 19.1661 32.5352 19.6021 32.3344 20.0827C32.1336 20.5634 32.0302 21.0791 32.0302 21.6C32.0302 22.1209 32.1336 22.6366 32.3344 23.1173C32.5352 23.5979 32.8294 24.0339 33.2 24.4L40.8 32H4C1.8 32 0 33.8 0 36C0 38.2 1.8 40 4 40H40.8L33.2 47.6C32.8294 47.9661 32.5352 48.4021 32.3344 48.8827C32.1336 49.3634 32.0302 49.8791 32.0302 50.4C32.0302 50.9209 32.1336 51.4366 32.3344 51.9173C32.5352 52.3979 32.8294 52.8339 33.2 53.2C34.76 54.76 37.24 54.76 38.8 53.2L53.16 38.84C53.5308 38.4699 53.825 38.0304 54.0257 37.5465C54.2265 37.0626 54.3298 36.5439 54.3298 36.02C54.3298 35.4961 54.2265 34.9774 54.0257 34.4935C53.825 34.0096 53.5308 33.5701 53.16 33.2L38.8 18.8C38.4339 18.4294 37.9979 18.1352 37.5173 17.9344C37.0366 17.7336 36.5209 17.6302 36 17.6302C35.4791 17.6302 34.9634 17.7336 34.4827 17.9344C34.0021 18.1352 33.5661 18.4294 33.2 18.8ZM72 64H44C41.8 64 40 65.8 40 68C40 70.2 41.8 72 44 72H72C76.4 72 80 68.4 80 64V8C80 3.6 76.4 0 72 0H44C41.8 0 40 1.8 40 4C40 6.2 41.8 8 44 8H72V64Z" fill="#4F7BFF"/>
</svg>
