<svg width="101" height="61" viewBox="0 0 101 61" fill="none" xmlns="http://www.w3.org/2000/svg">
<path d="M67.2 30.24C67.2 33.5627 66.2147 36.8108 64.3687 39.5736C62.5227 42.3363 59.8989 44.4896 56.8291 45.7612C53.7593 47.0327 50.3814 47.3654 47.1225 46.7172C43.8636 46.069 40.8701 44.4689 38.5206 42.1194C36.1711 39.7699 34.571 36.7764 33.9228 33.5175C33.2746 30.2586 33.6073 26.8807 34.8788 23.8109C36.1504 20.7411 38.3037 18.1173 41.0664 16.2713C43.8292 14.4253 47.0773 13.44 50.4 13.44C54.8556 13.44 59.1288 15.21 62.2794 18.3606C65.43 21.5112 67.2 25.7844 67.2 30.24ZM100.8 3.36V57.12C100.8 58.0111 100.446 58.8658 99.8159 59.4959C99.1858 60.126 98.3311 60.48 97.44 60.48H3.36C2.46887 60.48 1.61424 60.126 0.984121 59.4959C0.353999 58.8658 0 58.0111 0 57.12V3.36C0 2.46887 0.353999 1.61424 0.984121 0.984122C1.61424 0.354 2.46887 0 3.36 0H97.44C98.3311 0 99.1858 0.354 99.8159 0.984122C100.446 1.61424 100.8 2.46887 100.8 3.36ZM94.08 22.827C90.2647 21.6989 86.7923 19.6342 83.9791 16.8209C81.1658 14.0077 79.1011 10.5353 77.973 6.72H22.827C21.6989 10.5353 19.6342 14.0077 16.8209 16.8209C14.0077 19.6342 10.5353 21.6989 6.72 22.827V37.653C10.5353 38.7811 14.0077 40.8458 16.8209 43.6591C19.6342 46.4723 21.6989 49.9447 22.827 53.76H77.973C79.1011 49.9447 81.1658 46.4723 83.9791 43.6591C86.7923 40.8458 90.2647 38.7811 94.08 37.653V22.827Z" fill="#4F7BFF"/>
</svg>
