<svg width="85" height="72" viewBox="0 0 85 72" fill="none" xmlns="http://www.w3.org/2000/svg">
<path d="M85 68.6538C85 69.5209 84.6556 70.3524 84.0425 70.9655C83.4294 71.5786 82.5978 71.9231 81.7308 71.9231H3.26923C2.40218 71.9231 1.57064 71.5786 0.957535 70.9655C0.344436 70.3524 0 69.5209 0 68.6538C0 67.7868 0.344436 66.9552 0.957535 66.3421C1.57064 65.729 2.40218 65.3846 3.26923 65.3846H81.7308C82.5978 65.3846 83.4294 65.729 84.0425 66.3421C84.6556 66.9552 85 67.7868 85 68.6538ZM85 6.53846V52.3077C85 54.0418 84.3111 55.7049 83.0849 56.9311C81.8587 58.1573 80.1956 58.8462 78.4615 58.8462H6.53846C4.80435 58.8462 3.14127 58.1573 1.91507 56.9311C0.688871 55.7049 0 54.0418 0 52.3077V6.53846C0 4.80435 0.688871 3.14127 1.91507 1.91507C3.14127 0.688871 4.80435 0 6.53846 0H78.4615C80.1956 0 81.8587 0.688871 83.0849 1.91507C84.3111 3.14127 85 4.80435 85 6.53846ZM57.2115 29.4231C57.2114 28.8729 57.0723 28.3316 56.8073 27.8494C56.5423 27.3672 56.1598 26.9597 55.6954 26.6647L37.7147 15.2224C37.2204 14.9084 36.651 14.7329 36.0657 14.7142C35.4805 14.6956 34.901 14.8344 34.3877 15.1163C33.8745 15.3982 33.4464 15.8127 33.1482 16.3166C32.8499 16.8205 32.6925 17.3952 32.6923 17.9808V40.8654C32.6925 41.4509 32.8499 42.0257 33.1482 42.5296C33.4464 43.0334 33.8745 43.448 34.3877 43.7299C34.901 44.0117 35.4805 44.1506 36.0657 44.1319C36.651 44.1133 37.2204 43.9378 37.7147 43.6238L55.6954 32.1815C56.1598 31.8864 56.5423 31.4789 56.8073 30.9968C57.0723 30.5146 57.2114 29.9733 57.2115 29.4231Z" fill="#4F7BFF"/>
</svg>
